<svg width="401" height="73" viewBox="0 0 401 73" fill="none" xmlns="http://www.w3.org/2000/svg">
<mask id="path-1-outside-1_17_2" maskUnits="userSpaceOnUse" x="0" y="0" width="401" height="73" fill="black">
<rect fill="white" width="401" height="73"/>
<path d="M58.2031 2.75V71H41.7969L17.6562 28.5312V71H1.20312V2.75H17.6562L41.7969 45.2188V2.75H58.2031ZM126.359 35.5156V38.2812C126.359 43.5 125.625 48.1875 124.156 52.3438C122.719 56.4688 120.672 60 118.016 62.9375C115.359 65.8438 112.219 68.0781 108.594 69.6406C104.969 71.1719 100.969 71.9375 96.5938 71.9375C92.1875 71.9375 88.1562 71.1719 84.5 69.6406C80.875 68.0781 77.7188 65.8438 75.0312 62.9375C72.375 60 70.3125 56.4688 68.8438 52.3438C67.4062 48.1875 66.6875 43.5 66.6875 38.2812V35.5156C66.6875 30.2969 67.4062 25.6094 68.8438 21.4531C70.3125 17.2969 72.3594 13.7656 74.9844 10.8594C77.6406 7.92187 80.7812 5.6875 84.4062 4.15625C88.0625 2.59375 92.0938 1.8125 96.5 1.8125C100.875 1.8125 104.875 2.59375 108.5 4.15625C112.156 5.6875 115.312 7.92187 117.969 10.8594C120.625 13.7656 122.688 17.2969 124.156 21.4531C125.625 25.6094 126.359 30.2969 126.359 35.5156ZM109.672 38.2812V35.4219C109.672 32.0469 109.375 29.0781 108.781 26.5156C108.219 23.9219 107.375 21.75 106.25 20C105.125 18.25 103.734 16.9375 102.078 16.0625C100.453 15.1562 98.5938 14.7031 96.5 14.7031C94.3125 14.7031 92.4062 15.1562 90.7812 16.0625C89.1562 16.9375 87.7969 18.25 86.7031 20C85.6094 21.75 84.7812 23.9219 84.2188 26.5156C83.6875 29.0781 83.4219 32.0469 83.4219 35.4219V38.2812C83.4219 41.625 83.6875 44.5938 84.2188 47.1875C84.7812 49.75 85.6094 51.9219 86.7031 53.7031C87.8281 55.4844 89.2031 56.8281 90.8281 57.7344C92.4844 58.6406 94.4062 59.0938 96.5938 59.0938C98.6875 59.0938 100.547 58.6406 102.172 57.7344C103.797 56.8281 105.156 55.4844 106.25 53.7031C107.375 51.9219 108.219 49.75 108.781 47.1875C109.375 44.5938 109.672 41.625 109.672 38.2812ZM191.891 2.75V71H175.484L151.344 28.5312V71H134.891V2.75H151.344L175.484 45.2188V2.75H191.891ZM232.062 17.0938L215.422 71H197.75L222.828 2.75H234.031L232.062 17.0938ZM245.844 71L229.156 17.0938L227 2.75H238.344L263.562 71H245.844ZM245.188 45.5469V58.25H210.172V45.5469H245.188ZM276.734 2.75H290.141L305.375 50.2344L320.609 2.75H334.016L310.812 71H299.938L276.734 2.75ZM268.578 2.75H282.453L285.031 55.0625V71H268.578V2.75ZM328.297 2.75H342.219V71H325.719V55.0625L328.297 2.75ZM399.734 58.3438V71H363.359V58.3438H399.734ZM369.219 2.75V71H352.766V2.75H369.219ZM395.047 29.8438V42.0781H363.359V29.8438H395.047ZM399.875 2.75V15.4531H363.359V2.75H399.875Z"/>
</mask>
<path d="M58.2031 2.75V71H41.7969L17.6562 28.5312V71H1.20312V2.75H17.6562L41.7969 45.2188V2.75H58.2031ZM126.359 35.5156V38.2812C126.359 43.5 125.625 48.1875 124.156 52.3438C122.719 56.4688 120.672 60 118.016 62.9375C115.359 65.8438 112.219 68.0781 108.594 69.6406C104.969 71.1719 100.969 71.9375 96.5938 71.9375C92.1875 71.9375 88.1562 71.1719 84.5 69.6406C80.875 68.0781 77.7188 65.8438 75.0312 62.9375C72.375 60 70.3125 56.4688 68.8438 52.3438C67.4062 48.1875 66.6875 43.5 66.6875 38.2812V35.5156C66.6875 30.2969 67.4062 25.6094 68.8438 21.4531C70.3125 17.2969 72.3594 13.7656 74.9844 10.8594C77.6406 7.92187 80.7812 5.6875 84.4062 4.15625C88.0625 2.59375 92.0938 1.8125 96.5 1.8125C100.875 1.8125 104.875 2.59375 108.5 4.15625C112.156 5.6875 115.312 7.92187 117.969 10.8594C120.625 13.7656 122.688 17.2969 124.156 21.4531C125.625 25.6094 126.359 30.2969 126.359 35.5156ZM109.672 38.2812V35.4219C109.672 32.0469 109.375 29.0781 108.781 26.5156C108.219 23.9219 107.375 21.75 106.25 20C105.125 18.25 103.734 16.9375 102.078 16.0625C100.453 15.1562 98.5938 14.7031 96.5 14.7031C94.3125 14.7031 92.4062 15.1562 90.7812 16.0625C89.1562 16.9375 87.7969 18.25 86.7031 20C85.6094 21.75 84.7812 23.9219 84.2188 26.5156C83.6875 29.0781 83.4219 32.0469 83.4219 35.4219V38.2812C83.4219 41.625 83.6875 44.5938 84.2188 47.1875C84.7812 49.75 85.6094 51.9219 86.7031 53.7031C87.8281 55.4844 89.2031 56.8281 90.8281 57.7344C92.4844 58.6406 94.4062 59.0938 96.5938 59.0938C98.6875 59.0938 100.547 58.6406 102.172 57.7344C103.797 56.8281 105.156 55.4844 106.25 53.7031C107.375 51.9219 108.219 49.75 108.781 47.1875C109.375 44.5938 109.672 41.625 109.672 38.2812ZM191.891 2.75V71H175.484L151.344 28.5312V71H134.891V2.75H151.344L175.484 45.2188V2.75H191.891ZM232.062 17.0938L215.422 71H197.75L222.828 2.75H234.031L232.062 17.0938ZM245.844 71L229.156 17.0938L227 2.75H238.344L263.562 71H245.844ZM245.188 45.5469V58.25H210.172V45.5469H245.188ZM276.734 2.75H290.141L305.375 50.2344L320.609 2.75H334.016L310.812 71H299.938L276.734 2.75ZM268.578 2.75H282.453L285.031 55.0625V71H268.578V2.75ZM328.297 2.75H342.219V71H325.719V55.0625L328.297 2.75ZM399.734 58.3438V71H363.359V58.3438H399.734ZM369.219 2.75V71H352.766V2.75H369.219ZM395.047 29.8438V42.0781H363.359V29.8438H395.047ZM399.875 2.75V15.4531H363.359V2.75H399.875Z" fill="black"/>
<path d="M58.2031 2.75H59.2031V1.75H58.2031V2.75ZM58.2031 71V72H59.2031V71H58.2031ZM41.7969 71L40.9275 71.4942L41.215 72H41.7969V71ZM17.6562 28.5312L18.5256 28.0371L16.6562 24.7484V28.5312H17.6562ZM17.6562 71V72H18.6562V71H17.6562ZM1.20312 71H0.203125V72H1.20312V71ZM1.20312 2.75V1.75H0.203125V2.75H1.20312ZM17.6562 2.75L18.5256 2.25583L18.2381 1.75H17.6562V2.75ZM41.7969 45.2188L40.9275 45.7129L42.7969 49.0016V45.2188H41.7969ZM41.7969 2.75V1.75H40.7969V2.75H41.7969ZM58.2031 2.75H57.2031V71H58.2031H59.2031V2.75H58.2031ZM58.2031 71V70H41.7969V71V72H58.2031V71ZM41.7969 71L42.6662 70.5058L18.5256 28.0371L17.6562 28.5312L16.7869 29.0254L40.9275 71.4942L41.7969 71ZM17.6562 28.5312H16.6562V71H17.6562H18.6562V28.5312H17.6562ZM17.6562 71V70H1.20312V71V72H17.6562V71ZM1.20312 71H2.20312V2.75H1.20312H0.203125V71H1.20312ZM1.20312 2.75V3.75H17.6562V2.75V1.75H1.20312V2.75ZM17.6562 2.75L16.7869 3.24417L40.9275 45.7129L41.7969 45.2188L42.6662 44.7246L18.5256 2.25583L17.6562 2.75ZM41.7969 45.2188H42.7969V2.75H41.7969H40.7969V45.2188H41.7969ZM41.7969 2.75V3.75H58.2031V2.75V1.75H41.7969V2.75ZM124.156 52.3438L123.213 52.0106L123.212 52.0147L124.156 52.3438ZM118.016 62.9375L118.754 63.6122L118.757 63.6082L118.016 62.9375ZM108.594 69.6406L108.983 70.5618L108.99 70.5589L108.594 69.6406ZM84.5 69.6406L84.1041 70.559L84.1137 70.563L84.5 69.6406ZM75.0312 62.9375L74.2895 63.6082L74.2971 63.6164L75.0312 62.9375ZM68.8438 52.3438L67.8986 52.6706L67.9017 52.6792L68.8438 52.3438ZM68.8438 21.4531L67.9009 21.1199L67.8987 21.1263L68.8438 21.4531ZM74.9844 10.8594L74.2427 10.1887L74.2423 10.1891L74.9844 10.8594ZM84.4062 4.15625L84.7954 5.07744L84.7992 5.0758L84.4062 4.15625ZM108.5 4.15625L108.104 5.07462L108.114 5.07863L108.5 4.15625ZM117.969 10.8594L117.227 11.5301L117.231 11.534L117.969 10.8594ZM108.781 26.5156L107.804 26.7276L107.807 26.7414L108.781 26.5156ZM102.078 16.0625L101.591 16.9359L101.601 16.9414L101.611 16.9467L102.078 16.0625ZM90.7812 16.0625L91.2553 16.943L91.2619 16.9395L91.2683 16.9359L90.7812 16.0625ZM84.2188 26.5156L83.2414 26.3037L83.2396 26.3126L84.2188 26.5156ZM84.2188 47.1875L83.239 47.3882L83.242 47.4019L84.2188 47.1875ZM86.7031 53.7031L85.8509 54.2264L85.8576 54.2371L86.7031 53.7031ZM90.8281 57.7344L90.341 58.6078L90.3481 58.6116L90.8281 57.7344ZM106.25 53.7031L105.404 53.1691L105.398 53.1799L106.25 53.7031ZM108.781 47.1875L107.806 46.9643L107.805 46.9731L108.781 47.1875ZM126.359 35.5156H125.359V38.2812H126.359H127.359V35.5156H126.359ZM126.359 38.2812H125.359C125.359 43.4069 124.638 47.979 123.213 52.0106L124.156 52.3438L125.099 52.6769C126.612 48.396 127.359 43.5931 127.359 38.2812H126.359ZM124.156 52.3438L123.212 52.0147C121.814 56.0265 119.832 59.4382 117.274 62.2668L118.016 62.9375L118.757 63.6082C121.512 60.5618 123.624 56.911 125.101 52.6728L124.156 52.3438ZM118.016 62.9375L117.277 62.2629C114.717 65.0643 111.693 67.2157 108.198 68.7223L108.594 69.6406L108.99 70.5589C112.744 68.9405 116.002 66.6232 118.754 63.6121L118.016 62.9375ZM108.594 69.6406L108.205 68.7194C104.716 70.1931 100.85 70.9375 96.5938 70.9375V71.9375V72.9375C101.087 72.9375 105.222 72.1506 108.983 70.5618L108.594 69.6406ZM96.5938 71.9375V70.9375C92.3053 70.9375 88.4072 70.1928 84.8863 68.7182L84.5 69.6406L84.1137 70.563C87.9053 72.1509 92.0697 72.9375 96.5938 72.9375V71.9375ZM84.5 69.6406L84.8958 68.7223C81.3995 67.2152 78.3584 65.0626 75.7654 62.2586L75.0312 62.9375L74.2971 63.6164C77.0791 66.6249 80.3505 68.941 84.1042 70.5589L84.5 69.6406ZM75.0312 62.9375L75.773 62.2668C73.2138 59.4366 71.2151 56.0226 69.7858 52.0083L68.8438 52.3438L67.9017 52.6792C69.4099 56.9149 71.5362 60.5634 74.2895 63.6082L75.0312 62.9375ZM68.8438 52.3438L69.7888 52.0169C68.3938 47.9833 67.6875 43.409 67.6875 38.2812H66.6875H65.6875C65.6875 43.591 66.4187 48.3917 67.8987 52.6706L68.8438 52.3438ZM66.6875 38.2812H67.6875V35.5156H66.6875H65.6875V38.2812H66.6875ZM66.6875 35.5156H67.6875C67.6875 30.3879 68.3938 25.8136 69.7888 21.78L68.8438 21.4531L67.8987 21.1263C66.4187 25.4052 65.6875 30.2058 65.6875 35.5156H66.6875ZM68.8438 21.4531L69.7866 21.7863C71.2169 17.739 73.2005 14.3263 75.7265 11.5297L74.9844 10.8594L74.2423 10.1891C71.5183 13.2049 69.4081 16.8548 67.9009 21.1199L68.8438 21.4531ZM74.9844 10.8594L75.7261 11.5301C78.2851 8.70008 81.3057 6.55154 84.7954 5.07744L84.4062 4.15625L84.0171 3.23506C80.2568 4.82346 76.9961 7.14367 74.2427 10.1887L74.9844 10.8594ZM84.4062 4.15625L84.7992 5.0758C88.3184 3.57186 92.2142 2.8125 96.5 2.8125V1.8125V0.8125C91.9733 0.8125 87.8066 1.61564 84.0133 3.2367L84.4062 4.15625ZM96.5 1.8125V2.8125C100.754 2.8125 104.617 3.57152 108.104 5.07457L108.5 4.15625L108.896 3.23793C105.133 1.61598 100.996 0.8125 96.5 0.8125V1.8125ZM108.5 4.15625L108.114 5.07863C111.635 6.55317 114.669 8.70167 117.227 11.5301L117.969 10.8594L118.71 10.1887C115.956 7.14208 112.678 4.82183 108.886 3.23387L108.5 4.15625ZM117.969 10.8594L117.231 11.534C119.786 14.3301 121.784 17.7413 123.213 21.7863L124.156 21.4531L125.099 21.1199C123.591 16.8524 121.464 13.2011 118.707 10.1847L117.969 10.8594ZM124.156 21.4531L123.213 21.7863C124.638 25.8179 125.359 30.39 125.359 35.5156H126.359H127.359C127.359 30.2037 126.612 25.4008 125.099 21.1199L124.156 21.4531ZM109.672 38.2812H110.672V35.4219H109.672H108.672V38.2812H109.672ZM109.672 35.4219H110.672C110.672 31.9911 110.37 28.9438 109.755 26.2899L108.781 26.5156L107.807 26.7414C108.38 29.2125 108.672 32.1027 108.672 35.4219H109.672ZM108.781 26.5156L109.759 26.3037C109.177 23.6238 108.296 21.3333 107.091 19.4592L106.25 20L105.409 20.5408C106.454 22.1667 107.26 24.2199 107.804 26.7276L108.781 26.5156ZM106.25 20L107.091 19.4592C105.884 17.5809 104.37 16.1423 102.545 15.1783L102.078 16.0625L101.611 16.9467C103.099 17.7327 104.366 18.9191 105.409 20.5408L106.25 20ZM102.078 16.0625L102.565 15.1891C100.773 14.1899 98.7425 13.7031 96.5 13.7031V14.7031V15.7031C98.445 15.7031 100.133 16.1226 101.591 16.9359L102.078 16.0625ZM96.5 14.7031V13.7031C94.1721 13.7031 92.0923 14.1863 90.2942 15.1891L90.7812 16.0625L91.2683 16.9359C92.7202 16.1262 94.4529 15.7031 96.5 15.7031V14.7031ZM90.7812 16.0625L90.3072 15.182C88.5117 16.1488 87.0298 17.5905 85.8551 19.47L86.7031 20L87.5511 20.53C88.5639 18.9095 89.8008 17.7262 91.2553 16.943L90.7812 16.0625ZM86.7031 20L85.8551 19.47C84.6856 21.3412 83.8218 23.6279 83.2415 26.3037L84.2188 26.5156L85.196 26.7276C85.7407 24.2159 86.5331 22.1588 87.5511 20.53L86.7031 20ZM84.2188 26.5156L83.2396 26.3126C82.6912 28.9579 82.4219 31.9972 82.4219 35.4219H83.4219H84.4219C84.4219 32.0966 84.6838 29.1984 85.1979 26.7186L84.2188 26.5156ZM83.4219 35.4219H82.4219V38.2812H83.4219H84.4219V35.4219H83.4219ZM83.4219 38.2812H82.4219C82.4219 41.6757 82.6913 44.7138 83.2391 47.3882L84.2188 47.1875L85.1984 46.9868C84.6837 44.4737 84.4219 41.5743 84.4219 38.2812H83.4219ZM84.2188 47.1875L83.242 47.4019C83.8226 50.0469 84.686 52.3291 85.851 54.2264L86.7031 53.7031L87.5553 53.1799C86.5328 51.5146 85.7399 49.4531 85.1955 46.9731L84.2188 47.1875ZM86.7031 53.7031L85.8576 54.2371C87.0599 56.1407 88.5517 57.6098 90.3411 58.6077L90.8281 57.7344L91.3152 56.861C89.8545 56.0464 88.5963 54.828 87.5486 53.1691L86.7031 53.7031ZM90.8281 57.7344L90.3481 58.6116C92.1734 59.6104 94.2653 60.0938 96.5938 60.0938V59.0938V58.0938C94.5472 58.0938 92.7954 57.6709 91.3081 56.8571L90.8281 57.7344ZM96.5938 59.0938V60.0938C98.8363 60.0938 100.867 59.607 102.659 58.6077L102.172 57.7344L101.685 56.861C100.227 57.6742 98.5387 58.0938 96.5938 58.0938V59.0938ZM102.172 57.7344L102.659 58.6077C104.451 57.6081 105.93 56.1353 107.102 54.2264L106.25 53.7031L105.398 53.1799C104.382 54.8334 103.142 56.0481 101.685 56.861L102.172 57.7344ZM106.25 53.7031L107.095 54.2371C108.296 52.337 109.176 50.051 109.758 47.4019L108.781 47.1875L107.805 46.9731C107.261 49.449 106.454 51.5067 105.405 53.1691L106.25 53.7031ZM108.781 47.1875L109.756 47.4106C110.37 44.7278 110.672 41.6819 110.672 38.2812H109.672H108.672C108.672 41.5681 108.38 44.4597 107.806 46.9644L108.781 47.1875ZM191.891 2.75H192.891V1.75H191.891V2.75ZM191.891 71V72H192.891V71H191.891ZM175.484 71L174.615 71.4942L174.903 72H175.484V71ZM151.344 28.5312L152.213 28.0371L150.344 24.7484V28.5312H151.344ZM151.344 71V72H152.344V71H151.344ZM134.891 71H133.891V72H134.891V71ZM134.891 2.75V1.75H133.891V2.75H134.891ZM151.344 2.75L152.213 2.25583L151.926 1.75H151.344V2.75ZM175.484 45.2188L174.615 45.7129L176.484 49.0016V45.2188H175.484ZM175.484 2.75V1.75H174.484V2.75H175.484ZM191.891 2.75H190.891V71H191.891H192.891V2.75H191.891ZM191.891 71V70H175.484V71V72H191.891V71ZM175.484 71L176.354 70.5058L152.213 28.0371L151.344 28.5312L150.474 29.0254L174.615 71.4942L175.484 71ZM151.344 28.5312H150.344V71H151.344H152.344V28.5312H151.344ZM151.344 71V70H134.891V71V72H151.344V71ZM134.891 71H135.891V2.75H134.891H133.891V71H134.891ZM134.891 2.75V3.75H151.344V2.75V1.75H134.891V2.75ZM151.344 2.75L150.474 3.24417L174.615 45.7129L175.484 45.2188L176.354 44.7246L152.213 2.25583L151.344 2.75ZM175.484 45.2188H176.484V2.75H175.484H174.484V45.2188H175.484ZM175.484 2.75V3.75H191.891V2.75V1.75H175.484V2.75ZM232.062 17.0938L233.018 17.3887L233.042 17.3107L233.053 17.2297L232.062 17.0938ZM215.422 71V72H216.16L216.377 71.295L215.422 71ZM197.75 71L196.811 70.6551L196.317 72H197.75V71ZM222.828 2.75V1.75H222.13L221.889 2.4051L222.828 2.75ZM234.031 2.75L235.022 2.88598L235.178 1.75H234.031V2.75ZM245.844 71L244.888 71.2957L245.106 72H245.844V71ZM229.156 17.0938L228.167 17.2424L228.179 17.3172L228.201 17.3895L229.156 17.0938ZM227 2.75V1.75H225.838L226.011 2.89866L227 2.75ZM238.344 2.75L239.282 2.4034L239.04 1.75H238.344V2.75ZM263.562 71V72H264.998L264.501 70.6534L263.562 71ZM245.188 45.5469H246.188V44.5469H245.188V45.5469ZM245.188 58.25V59.25H246.188V58.25H245.188ZM210.172 58.25H209.172V59.25H210.172V58.25ZM210.172 45.5469V44.5469H209.172V45.5469H210.172ZM232.062 17.0938L231.107 16.7988L214.466 70.705L215.422 71L216.377 71.295L233.018 17.3887L232.062 17.0938ZM215.422 71V70H197.75V71V72H215.422V71ZM197.75 71L198.689 71.3449L223.767 3.0949L222.828 2.75L221.889 2.4051L196.811 70.6551L197.75 71ZM222.828 2.75V3.75H234.031V2.75V1.75H222.828V2.75ZM234.031 2.75L233.041 2.61402L231.072 16.9578L232.062 17.0938L233.053 17.2297L235.022 2.88598L234.031 2.75ZM245.844 71L246.799 70.7043L230.112 16.798L229.156 17.0938L228.201 17.3895L244.888 71.2957L245.844 71ZM229.156 17.0938L230.145 16.9451L227.989 2.60134L227 2.75L226.011 2.89866L228.167 17.2424L229.156 17.0938ZM227 2.75V3.75H238.344V2.75V1.75H227V2.75ZM238.344 2.75L237.406 3.0966L262.624 71.3466L263.562 71L264.501 70.6534L239.282 2.4034L238.344 2.75ZM263.562 71V70H245.844V71V72H263.562V71ZM245.188 45.5469H244.188V58.25H245.188H246.188V45.5469H245.188ZM245.188 58.25V57.25H210.172V58.25V59.25H245.188V58.25ZM210.172 58.25H211.172V45.5469H210.172H209.172V58.25H210.172ZM210.172 45.5469V46.5469H245.188V45.5469V44.5469H210.172V45.5469ZM276.734 2.75V1.75H275.338L275.788 3.07188L276.734 2.75ZM290.141 2.75L291.093 2.44451L290.87 1.75H290.141V2.75ZM305.375 50.2344L304.423 50.5399L305.375 53.5078L306.327 50.5399L305.375 50.2344ZM320.609 2.75V1.75H319.88L319.657 2.44451L320.609 2.75ZM334.016 2.75L334.962 3.07188L335.412 1.75H334.016V2.75ZM310.812 71V72H311.529L311.759 71.3219L310.812 71ZM299.938 71L298.991 71.3219L299.221 72H299.938V71ZM268.578 2.75V1.75H267.578V2.75H268.578ZM282.453 2.75L283.452 2.70078L283.405 1.75H282.453V2.75ZM285.031 55.0625H286.031V55.0379L286.03 55.0133L285.031 55.0625ZM285.031 71V72H286.031V71H285.031ZM268.578 71H267.578V72H268.578V71ZM328.297 2.75V1.75H327.345L327.298 2.70078L328.297 2.75ZM342.219 2.75H343.219V1.75H342.219V2.75ZM342.219 71V72H343.219V71H342.219ZM325.719 71H324.719V72H325.719V71ZM325.719 55.0625L324.72 55.0133L324.719 55.0379V55.0625H325.719ZM276.734 2.75V3.75H290.141V2.75V1.75H276.734V2.75ZM290.141 2.75L289.188 3.05549L304.423 50.5399L305.375 50.2344L306.327 49.9289L291.093 2.44451L290.141 2.75ZM305.375 50.2344L306.327 50.5399L321.562 3.05549L320.609 2.75L319.657 2.44451L304.423 49.9289L305.375 50.2344ZM320.609 2.75V3.75H334.016V2.75V1.75H320.609V2.75ZM334.016 2.75L333.069 2.42812L309.866 70.6781L310.812 71L311.759 71.3219L334.962 3.07188L334.016 2.75ZM310.812 71V70H299.938V71V72H310.812V71ZM299.938 71L300.884 70.6781L277.681 2.42812L276.734 2.75L275.788 3.07188L298.991 71.3219L299.938 71ZM268.578 2.75V3.75H282.453V2.75V1.75H268.578V2.75ZM282.453 2.75L281.454 2.79922L284.032 55.1117L285.031 55.0625L286.03 55.0133L283.452 2.70078L282.453 2.75ZM285.031 55.0625H284.031V71H285.031H286.031V55.0625H285.031ZM285.031 71V70H268.578V71V72H285.031V71ZM268.578 71H269.578V2.75H268.578H267.578V71H268.578ZM328.297 2.75V3.75H342.219V2.75V1.75H328.297V2.75ZM342.219 2.75H341.219V71H342.219H343.219V2.75H342.219ZM342.219 71V70H325.719V71V72H342.219V71ZM325.719 71H326.719V55.0625H325.719H324.719V71H325.719ZM325.719 55.0625L326.718 55.1117L329.296 2.79922L328.297 2.75L327.298 2.70078L324.72 55.0133L325.719 55.0625ZM399.734 58.3438H400.734V57.3438H399.734V58.3438ZM399.734 71V72H400.734V71H399.734ZM363.359 71H362.359V72H363.359V71ZM363.359 58.3438V57.3438H362.359V58.3438H363.359ZM369.219 2.75H370.219V1.75H369.219V2.75ZM369.219 71V72H370.219V71H369.219ZM352.766 71H351.766V72H352.766V71ZM352.766 2.75V1.75H351.766V2.75H352.766ZM395.047 29.8438H396.047V28.8438H395.047V29.8438ZM395.047 42.0781V43.0781H396.047V42.0781H395.047ZM363.359 42.0781H362.359V43.0781H363.359V42.0781ZM363.359 29.8438V28.8438H362.359V29.8438H363.359ZM399.875 2.75H400.875V1.75H399.875V2.75ZM399.875 15.4531V16.4531H400.875V15.4531H399.875ZM363.359 15.4531H362.359V16.4531H363.359V15.4531ZM363.359 2.75V1.75H362.359V2.75H363.359ZM399.734 58.3438H398.734V71H399.734H400.734V58.3438H399.734ZM399.734 71V70H363.359V71V72H399.734V71ZM363.359 71H364.359V58.3438H363.359H362.359V71H363.359ZM363.359 58.3438V59.3438H399.734V58.3438V57.3438H363.359V58.3438ZM369.219 2.75H368.219V71H369.219H370.219V2.75H369.219ZM369.219 71V70H352.766V71V72H369.219V71ZM352.766 71H353.766V2.75H352.766H351.766V71H352.766ZM352.766 2.75V3.75H369.219V2.75V1.75H352.766V2.75ZM395.047 29.8438H394.047V42.0781H395.047H396.047V29.8438H395.047ZM395.047 42.0781V41.0781H363.359V42.0781V43.0781H395.047V42.0781ZM363.359 42.0781H364.359V29.8438H363.359H362.359V42.0781H363.359ZM363.359 29.8438V30.8438H395.047V29.8438V28.8438H363.359V29.8438ZM399.875 2.75H398.875V15.4531H399.875H400.875V2.75H399.875ZM399.875 15.4531V14.4531H363.359V15.4531V16.4531H399.875V15.4531ZM363.359 15.4531H364.359V2.75H363.359H362.359V15.4531H363.359ZM363.359 2.75V3.75H399.875V2.75V1.75H363.359V2.75Z" fill="black" mask="url(#path-1-outside-1_17_2)"/>
</svg>
