<svg width="319" height="95" viewBox="0 0 319 95" fill="none" xmlns="http://www.w3.org/2000/svg">
<path d="M61.0625 76.125V93H15.0625V76.125H61.0625ZM22.875 2V93H0.9375V2H22.875ZM143.312 45.6875V49.375C143.312 56.3333 142.333 62.5833 140.375 68.125C138.458 73.625 135.729 78.3333 132.188 82.25C128.646 86.125 124.458 89.1042 119.625 91.1875C114.792 93.2292 109.458 94.25 103.625 94.25C97.75 94.25 92.375 93.2292 87.5 91.1875C82.6667 89.1042 78.4583 86.125 74.875 82.25C71.3333 78.3333 68.5833 73.625 66.625 68.125C64.7083 62.5833 63.75 56.3333 63.75 49.375V45.6875C63.75 38.7292 64.7083 32.4792 66.625 26.9375C68.5833 21.3958 71.3125 16.6875 74.8125 12.8125C78.3542 8.89583 82.5417 5.91667 87.375 3.875C92.25 1.79167 97.625 0.75 103.5 0.75C109.333 0.75 114.667 1.79167 119.5 3.875C124.375 5.91667 128.583 8.89583 132.125 12.8125C135.667 16.6875 138.417 21.3958 140.375 26.9375C142.333 32.4792 143.312 38.7292 143.312 45.6875ZM121.062 49.375V45.5625C121.062 41.0625 120.667 37.1042 119.875 33.6875C119.125 30.2292 118 27.3333 116.5 25C115 22.6667 113.146 20.9167 110.938 19.75C108.771 18.5417 106.292 17.9375 103.5 17.9375C100.583 17.9375 98.0417 18.5417 95.875 19.75C93.7083 20.9167 91.8958 22.6667 90.4375 25C88.9792 27.3333 87.875 30.2292 87.125 33.6875C86.4167 37.1042 86.0625 41.0625 86.0625 45.5625V49.375C86.0625 53.8333 86.4167 57.7917 87.125 61.25C87.875 64.6667 88.9792 67.5625 90.4375 69.9375C91.9375 72.3125 93.7708 74.1042 95.9375 75.3125C98.1458 76.5208 100.708 77.125 103.625 77.125C106.417 77.125 108.896 76.5208 111.062 75.3125C113.229 74.1042 115.042 72.3125 116.5 69.9375C118 67.5625 119.125 64.6667 119.875 61.25C120.667 57.7917 121.062 53.8333 121.062 49.375ZM229.125 44.375V81.75C227.583 83.4583 225.208 85.2917 222 87.25C218.833 89.1667 214.833 90.8125 210 92.1875C205.167 93.5625 199.479 94.25 192.938 94.25C186.896 94.25 181.417 93.2917 176.5 91.375C171.583 89.4167 167.354 86.5625 163.812 82.8125C160.312 79.0208 157.604 74.3958 155.688 68.9375C153.812 63.4375 152.875 57.1458 152.875 50.0625V45C152.875 37.9167 153.833 31.625 155.75 26.125C157.667 20.625 160.354 16 163.812 12.25C167.312 8.45833 171.417 5.58333 176.125 3.625C180.875 1.66667 186.083 0.6875 191.75 0.6875C200.125 0.6875 206.938 2.02083 212.188 4.6875C217.438 7.3125 221.417 10.9583 224.125 15.625C226.833 20.25 228.479 25.6042 229.062 31.6875H208C207.583 28.6875 206.792 26.1458 205.625 24.0625C204.5 21.9375 202.875 20.3333 200.75 19.25C198.625 18.125 195.875 17.5625 192.5 17.5625C189.875 17.5625 187.479 18.125 185.312 19.25C183.188 20.375 181.375 22.0833 179.875 24.375C178.375 26.625 177.208 29.4583 176.375 32.875C175.583 36.2917 175.188 40.2917 175.188 44.875V50.0625C175.188 54.6042 175.562 58.5833 176.312 62C177.104 65.4167 178.271 68.2708 179.812 70.5625C181.396 72.8125 183.396 74.5208 185.812 75.6875C188.271 76.8125 191.167 77.375 194.5 77.375C196.833 77.375 198.833 77.1875 200.5 76.8125C202.167 76.3958 203.542 75.8958 204.625 75.3125C205.75 74.6875 206.604 74.1042 207.188 73.5625V59.4375H191.938V44.375H229.125ZM318.938 45.6875V49.375C318.938 56.3333 317.958 62.5833 316 68.125C314.083 73.625 311.354 78.3333 307.812 82.25C304.271 86.125 300.083 89.1042 295.25 91.1875C290.417 93.2292 285.083 94.25 279.25 94.25C273.375 94.25 268 93.2292 263.125 91.1875C258.292 89.1042 254.083 86.125 250.5 82.25C246.958 78.3333 244.208 73.625 242.25 68.125C240.333 62.5833 239.375 56.3333 239.375 49.375V45.6875C239.375 38.7292 240.333 32.4792 242.25 26.9375C244.208 21.3958 246.938 16.6875 250.438 12.8125C253.979 8.89583 258.167 5.91667 263 3.875C267.875 1.79167 273.25 0.75 279.125 0.75C284.958 0.75 290.292 1.79167 295.125 3.875C300 5.91667 304.208 8.89583 307.75 12.8125C311.292 16.6875 314.042 21.3958 316 26.9375C317.958 32.4792 318.938 38.7292 318.938 45.6875ZM296.688 49.375V45.5625C296.688 41.0625 296.292 37.1042 295.5 33.6875C294.75 30.2292 293.625 27.3333 292.125 25C290.625 22.6667 288.771 20.9167 286.562 19.75C284.396 18.5417 281.917 17.9375 279.125 17.9375C276.208 17.9375 273.667 18.5417 271.5 19.75C269.333 20.9167 267.521 22.6667 266.062 25C264.604 27.3333 263.5 30.2292 262.75 33.6875C262.042 37.1042 261.688 41.0625 261.688 45.5625V49.375C261.688 53.8333 262.042 57.7917 262.75 61.25C263.5 64.6667 264.604 67.5625 266.062 69.9375C267.562 72.3125 269.396 74.1042 271.562 75.3125C273.771 76.5208 276.333 77.125 279.25 77.125C282.042 77.125 284.521 76.5208 286.688 75.3125C288.854 74.1042 290.667 72.3125 292.125 69.9375C293.625 67.5625 294.75 64.6667 295.5 61.25C296.292 57.7917 296.688 53.8333 296.688 49.375Z" fill="#999999"/>
</svg>
