<svg width="200" height="72" viewBox="0 0 200 72" fill="none" xmlns="http://www.w3.org/2000/svg">
<path d="M167.614 72C158.281 72 150.647 68.9333 144.714 62.8C138.847 56.6667 135.914 47.7333 135.914 36C135.914 24.2 138.881 15.2667 144.814 9.19999C150.814 3.13333 158.514 0.0999908 167.914 0.0999908C177.381 0.0999908 185.014 3.09999 190.814 9.09999C196.614 15.0333 199.514 24.0667 199.514 36.2C199.514 48.2667 196.547 57.2667 190.614 63.2C184.681 69.0667 177.014 72 167.614 72ZM167.714 19.3C164.514 19.3 161.814 20.7667 159.614 23.7C157.481 26.6333 156.414 30.7667 156.414 36.1C156.414 41.3667 157.447 45.4333 159.514 48.3C161.581 51.1 164.281 52.5 167.614 52.5C171.014 52.5 173.747 51.0667 175.814 48.2C177.947 45.3333 179.014 41.2333 179.014 35.9C179.014 30.5667 177.914 26.4667 175.714 23.6C173.581 20.7333 170.914 19.3 167.714 19.3Z" fill="black"/>
<path d="M67.9009 2.29999C67.9009 1.96666 69.3342 1.66666 72.2009 1.39999C75.1342 1.06666 77.5342 0.899994 79.4009 0.899994C86.8009 0.899994 90.6676 1.86666 91.0009 3.79999L99.6009 47.8L107.701 3.79999C108.101 1.86666 112.234 0.899994 120.101 0.899994C122.034 0.899994 124.468 1.03333 127.401 1.3C130.334 1.56666 131.801 1.86666 131.801 2.2L114.101 68.4C113.834 69.4667 111.868 70.1667 108.201 70.5C102.534 71.1 97.3675 71.2333 92.7009 70.9C88.1009 70.5 85.6675 69.8333 85.4009 68.9L67.9009 2.29999Z" fill="black"/>
<path d="M62.257 70.4C62.257 70.9333 59.1904 71.2 53.057 71.2C46.9904 71.2 43.957 70.9667 43.957 70.5V21.4C43.957 20.9333 46.9904 20.7 53.057 20.7C59.1904 20.7 62.257 20.9 62.257 21.3V70.4ZM62.257 15.4C62.257 15.8666 59.1904 16.1 53.057 16.1C46.9904 16.1 43.957 15.9 43.957 15.5C43.957 15.5 43.957 1.76665 43.957 1.09998C43.957 0.433318 46.9904 0.0999832 53.057 0.0999832C59.1904 0.0999832 62.257 0.299986 62.257 0.699988V15.4Z" fill="black"/>
<path d="M53.057 16.1C59.1904 16.1 62.257 15.8666 62.257 15.4V0.699988C62.257 0.299986 59.1904 0.0999832 53.057 0.0999832C46.9904 0.0999832 43.957 0.433318 43.957 1.09998V15.5C43.957 15.9 46.9904 16.1 53.057 16.1Z" fill="#FFCC01"/>
<path d="M0 65.1V2.89998C0 1.49999 3.36667 0.799988 10.1 0.799988C16.9 0.799988 20.3 1.49999 20.3 2.89998V51.9H35.7C36.9 51.9 37.7333 53.4667 38.2 56.6C38.4 58.1333 38.5 59.7 38.5 61.3C38.5 62.9 38.4 64.5333 38.2 66.2C37.6667 69.4 36.8 71 35.6 71H4.8C3.33333 71 2.16667 70.4 1.3 69.2C0.433333 68 0 66.6333 0 65.1Z" fill="black"/>
</svg>
